HIERARCHY
ROOT Hips
{
  OFFSET 0 0 0
  CHANNELS 6 Xposition Yposition Zposition Zrotation Yrotation Xrotation
  JOINT LeftThigh
  {
    OFFSET 8.409438 0 -5.917753
    CHANNELS 3 Zrotation Yrotation Xrotation
    JOINT LeftLeg
    {
      OFFSET 0 0 -42.358652
      CHANNELS 3 Zrotation Yrotation Xrotation
      JOINT LeftFoot
      {
        OFFSET 0 0 -39.357303
        CHANNELS 3 Zrotation Yrotation Xrotation
      }
    }
  }
  JOINT RightThigh
  {
    OFFSET -8.409438 0 -5.917753
    CHANNELS 3 Zrotation Yrotation Xrotation
    JOINT RightLeg
    {
      OFFSET 0 0 -42.358652
      CHANNELS 3 Zrotation Yrotation Xrotation
      JOINT RightFoot
      {
        OFFSET 0 0 -39.357303
        CHANNELS 3 Zrotation Yrotation Xrotation
      }
    }
  }
  JOINT SpineLow
  {
    OFFSET 0 0 4.719101
    CHANNELS 3 Zrotation Yrotation Xrotation
    JOINT SpineMid
    {
      OFFSET 0 0 12.899191
      CHANNELS 3 Zrotation Yrotation Xrotation
      JOINT Chest
      {
        OFFSET 0 0 12.899191
        CHANNELS 3 Zrotation Yrotation Xrotation
        JOINT LeftShoulder
        {
          OFFSET 7.550562 1.41573 9.438202
          CHANNELS 3 Zrotation Yrotation Xrotation
          JOINT LeftArm
          {
            OFFSET 9.155056 0 4.247191
            CHANNELS 3 Zrotation Yrotation Xrotation
            JOINT LeftForearm
            {
              OFFSET 0 0 25.771955
              CHANNELS 3 Zrotation Yrotation Xrotation
              JOINT LeftHand
              {
                OFFSET 0 0 25.197169
                CHANNELS 3 Zrotation Yrotation Xrotation
              }
            }
          }
        }
        JOINT RightShoulder
        {
          OFFSET -7.550562 1.41573 9.438202
          CHANNELS 3 Zrotation Yrotation Xrotation
          JOINT RightArm
          {
            OFFSET -9.155056 0 4.247191
            CHANNELS 3 Zrotation Yrotation Xrotation
            JOINT RightForearm
            {
              OFFSET 0 0 -25.771955
              CHANNELS 3 Zrotation Yrotation Xrotation
              JOINT RightHand
              {
                OFFSET 0 0 -25.197169
                CHANNELS 3 Zrotation Yrotation Xrotation
              }
            }
          }
        }
        JOINT Neck
        {
          OFFSET 0 0 15.101124
          CHANNELS 3 Zrotation Yrotation Xrotation
          JOINT Head
          {
            OFFSET 0 0 11.325843
            CHANNELS 3 Zrotation Yrotation Xrotation
            End Site
            {
              OFFSET 0 0 14.157303
            }
          }
        }
      }
    }
  }
}
MOTION
Frames: 7
Frame Time: 0.0
0.0  89.887642  0.0  10.592427  27.0983  -87.794407  28.564241  -27.057665  15.930334  -7.760882  19.534139  24.774619  -0.280461  -0.07257  -1.106668  -24.57318  16.05825  -49.775428  7.994167  2.142984  58.579489  2.2208  3.428708  0.391219  0.585163  0.752231  0.796249  1.62453  2.036484  2.195167  1.62453  2.036484  2.195167  -5.46843  19.293909  13.792956  118.013247  48.689118  -160.038966  -21.074924  -1.33  71.934773  72.99729  -13.09756  15.029536  -0.640625  -0.845295  14.954842  -3.866415  58.15736  -38.471913  -33.439724  -19.21998  -84.833985  75.370815  -11.857048  -10.572956  -25.639553  2.132594  -4.196685  -19.213927  1.779483  -3.063974  
0.0  89.887642  0.0  10.18187  26.549901  -88.159944  28.800719  -27.195554  15.771356  -8.665859  19.989729  24.5964  0.329944  -0.085069  -1.050831  -24.500463  16.033062  -49.865072  7.878736  2.115534  58.475385  2.352735  3.277907  0.322696  0.606005  0.738209  0.862442  1.683012  1.995764  2.376395  1.683012  1.995764  2.376395  -5.636746  19.050372  13.335405  117.150354  48.208527  -160.887666  -21.334222  -1.519459  72.148751  72.95983  -12.992984  14.660932  -0.771154  -0.705555  14.534489  -2.397917  57.927436  -37.348773  -33.386139  -18.868812  -85.118234  75.488873  -11.504538  -10.807834  -25.559623  1.924693  -4.400241  -19.155289  1.631202  -3.225985  
0.0  89.887642  0.0  9.840684  26.287029  -88.479246  27.854045  -27.125583  15.98446  -8.302854  20.299199  24.570985  0.889924  -0.097832  -0.891501  -24.170024  15.962269  -49.721715  7.683699  2.173705  58.392957  2.449808  3.185169  0.297368  0.617517  0.728907  0.913186  1.715638  1.968598  2.515218  1.715638  1.968598  2.515218  -5.886889  18.797899  13.088121  116.743164  47.791214  -161.472925  -21.762425  -1.518384  72.181459  72.730158  -13.032045  14.671825  -0.758472  -0.613155  14.336355  -1.532713  57.700399  -36.527448  -33.289762  -18.641419  -85.328982  75.587489  -11.194396  -10.949852  -25.519188  1.728361  -4.487487  -19.126525  1.486999  -3.299947  
0.0  89.887642  0.0  9.478801  26.094774  -88.817441  26.769206  -27.030592  16.396739  -7.402703  20.273633  24.609994  1.031243  -0.115251  -0.786715  -24.38326  15.912884  -49.800864  7.642978  1.924569  58.336357  2.599628  3.100297  0.309678  0.622702  0.730524  0.952863  1.731051  1.971767  2.623888  1.731051  1.971767  2.623888  -6.179203  18.432524  12.928746  116.89439  47.39341  -161.729056  -22.123302  -1.258224  72.233745  72.507721  -13.011223  14.701693  -1.468201  -0.5197  13.996453  0.300761  57.618127  -35.386746  -33.279134  -18.410007  -85.420697  75.690294  -10.954775  -10.99033  -25.561777  1.534364  -4.532678  -19.160109  1.343416  -3.34201  
0.0  89.887642  0.0  9.095308  25.850789  -89.076052  26.074695  -26.945931  16.648678  -6.600671  20.067163  24.622678  0.984862  -0.158432  -0.691845  -24.066447  15.765263  -49.689697  7.438992  1.786841  58.272548  2.578105  3.050624  0.322815  0.684538  0.716694  0.989719  1.900586  1.930437  2.726055  1.900586  1.930437  2.726054  -6.740035  18.108712  12.721989  117.43675  46.998607  -161.702668  -22.391342  -0.906695  72.298417  72.313315  -12.91574  14.81709  -1.840009  -0.519467  13.756474  1.301853  57.561424  -34.536796  -33.393459  -18.085625  -85.422754  75.781872  -10.810082  -10.887092  -25.708068  1.337089  -4.547497  -19.271544  1.196892  -3.361236  
0.0  89.887642  0.0  8.787889  25.543923  -89.283304  26.034207  -26.930086  16.856717  -6.608857  19.760254  24.313945  0.968588  -0.161091  -0.580633  -23.846211  15.743606  -49.708289  7.18483  1.723378  58.261292  2.959183  2.970479  0.370118  0.730312  0.70918  0.994713  2.025537  1.907852  2.740784  2.025537  1.907852  2.740784  -7.177162  17.896147  12.637463  118.297291  46.655061  -161.549945  -22.613284  -0.554499  72.392008  72.219009  -12.747357  14.918142  -2.271561  -0.488092  13.62788  2.371714  57.531098  -33.70161  -33.562206  -17.673503  -85.350501  75.764109  -10.738895  -10.775312  -25.779838  1.22855  -4.47899  -19.326413  1.112962  -3.314249  
0.0  89.887642  0.0  8.5812  25.227508  -89.35843  26.25484  -26.881262  16.949996  -7.151283  19.467937  23.865857  0.976634  -0.143699  -0.522044  -23.411904  15.740885  -49.700656  6.779539  1.720006  58.295752  3.028902  2.931255  0.354401  0.748304  0.707795  0.985402  2.074394  1.90361  2.715798  2.074394  1.90361  2.715798  -7.386923  17.765398  12.532204  119.332657  46.387082  -161.364667  -22.788927  -0.235877  72.668672  72.225322  -12.471848  14.982987  -2.306011  -0.449108  13.562192  3.375565  57.531061  -32.89104  -33.799924  -17.242573  -85.206653  75.732684  -10.679644  -10.453107  -25.736431  1.140797  -4.404276  -19.294698  1.043519  -3.261887  
